<?xml version="1.0" encoding="UTF-8"?>
<svg width="13px" height="12px" viewBox="0 0 13 12" version="1.1" xmlns="http://www.w3.org/2000/svg" xmlns:xlink="http://www.w3.org/1999/xlink">
    <title>Group 6</title>
    <g id="Website" stroke="none" stroke-width="5" fill="none" fill-rule="evenodd">
        <g id="Desktop-HD" transform="translate(-425.000000, -888.000000)" fill="#2A885E" fill-rule="nonzero">
            <g id="Rectangle" transform="translate(248.000000, 501.000000)">
                <g id="Group-10" transform="translate(36.000000, 384.000000)">
                    <g id="Group-6" transform="translate(141.693333, 3.000000)">
                        <path d="M4.52269865,1.35355339 L5.22980543,0.646446609 C5.42506758,0.451184464 5.74165007,0.451184464 5.93691221,0.646446609 L10.9369122,5.64644661 C11.1321744,5.84170876 11.1321744,6.15829124 10.9369122,6.35355339 L5.93691221,11.3535534 C5.74165007,11.5488155 5.42506758,11.5488155 5.22980543,11.3535534 L4.52269865,10.6464466 C4.32743871,10.4511835 4.327438,10.1346022 4.52269707,9.93933824 L8.462,6 L8.462,6 L4.52269707,2.06066176 C4.327438,1.86539777 4.32743871,1.5488165 4.52269865,1.35355339 Z" id="Path-2"></path>
                        <path d="M10.3333333,5 L10.3333333,7 L0.5,7 C0.223857625,7 3.38176876e-17,6.77614237 0,6.5 L0,5.5 C-3.38176876e-17,5.22385763 0.223857625,5 0.5,5 L10.3333333,5 L10.3333333,5 Z" id="Line-2"></path>
                    </g>
                </g>
            </g>
        </g>
    </g>
</svg>