<?xml version="1.0" encoding="UTF-8"?>
<svg width="12px" height="12px" viewBox="0 0 14 14" version="1.1" xmlns="http://www.w3.org/2000/svg" xmlns:xlink="http://www.w3.org/1999/xlink">
    <title>download</title>
    <g id="download" stroke="none" stroke-width="1" fill="none" fill-rule="evenodd">
        <g id="download1" transform="translate(-1199.000000, -36.000000)" fill="#333333" fill-rule="nonzero">
            <g id="download2" transform="translate(1135.500000, 32.000000)">
                <path d="M65,11.5 C65.2761424,11.5 65.5,11.7238576 65.5,12 L65.5,15.5 L74.5,15.5 L74.5,12 C74.5,11.7238576 74.7238576,11.5 75,11.5 L76,11.5 C76.2761424,11.5 76.5,11.7238576 76.5,12 L76.5,17 C76.5,17.2761424 76.2761424,17.5 76,17.5 L64,17.5 C63.7238576,17.5 63.5,17.2761424 63.5,17 L63.5,12 C63.5,11.7238576 63.7238576,11.5 64,11.5 L65,11.5 Z M70.5,4 C70.7761424,4 71,4.22385763 71,4.5 L71.001,9.585 L72.9392976,7.64640438 C73.1346088,7.45122428 73.4511587,7.45124318 73.6464466,7.64644661 L74.3535534,8.35355339 C74.5488155,8.54881554 74.5488155,8.86539803 74.3535534,9.06066017 L70.3535534,13.0606602 C70.1582912,13.2559223 69.8417088,13.2559223 69.6464466,13.0606602 L65.6464466,9.06066017 C65.4511845,8.86539803 65.4511845,8.54881554 65.6464466,8.35355339 L66.3535534,7.64644661 C66.5488413,7.45124318 66.8653912,7.45122428 67.0607024,7.64640438 L69.001,9.585 L69,4.5 C69,4.22385763 69.2238576,4 69.5,4 L70.5,4 Z" id="Combined-Shape"></path>
            </g>
        </g>
    </g>
</svg>